<svg width="60" height="60" viewBox="0 0 60 60" fill="none" xmlns="http://www.w3.org/2000/svg">
<path d="M38.7052 12H17.0431C13.6961 12 11 14.6961 11 18.0431V46.9104C11 50.2574 13.6961 53 17.0431 53H38.7052C42.0522 53 44.7483 50.3039 44.7483 46.9569V18.0431C44.7483 14.6961 42.0522 12 38.7052 12ZM22.9002 23.4354H32.8946C33.6848 23.4354 34.2891 24.0397 34.2891 24.8299C34.2891 25.6202 33.6848 26.2245 32.8946 26.2245H22.9002C22.11 26.2245 21.5057 25.6202 21.5057 24.8299C21.5057 24.0397 22.11 23.4354 22.9002 23.4354ZM36.4274 41.5646H19.2744C18.4841 41.5646 17.8798 40.9603 17.8798 40.1701C17.8798 39.3798 18.5306 38.7755 19.2744 38.7755H36.4274C37.2177 38.7755 37.822 39.3798 37.822 40.1701C37.822 40.9603 37.2177 41.5646 36.4274 41.5646ZM36.4274 33.8946H19.2744C18.4841 33.8946 17.8798 33.2902 17.8798 32.5C17.8798 31.7098 18.5306 31.1054 19.2744 31.1054H36.4274C37.2177 31.1054 37.822 31.7098 37.822 32.5C37.822 33.2902 37.2177 33.8946 36.4274 33.8946Z" fill="#0288D1"/>
<path d="M49.125 4H40.875V26H49.125V4Z" fill="#21252C"/>
<path d="M56 19.125V10.875L34 10.875V19.125H56Z" fill="#21252C"/>
<path d="M47.75 5.375H42.25V24.625H47.75V5.375Z" fill="#0288D1"/>
<path d="M35.375 12.25V17.75H54.625V12.25H35.375Z" fill="#0288D1"/>
</svg>
