<svg width="34" height="41" viewBox="0 0 34 41" fill="none" xmlns="http://www.w3.org/2000/svg">
<path d="M27.7052 0H6.04308C2.69615 0 0 2.69615 0 6.04308V34.9104C0 38.2574 2.69615 41 6.04308 41H27.7052C31.0522 41 33.7483 38.3039 33.7483 34.9569V6.04308C33.7483 2.69615 31.0522 0 27.7052 0ZM11.9002 11.4354H21.8946C22.6848 11.4354 23.2891 12.0397 23.2891 12.8299C23.2891 13.6202 22.6848 14.2245 21.8946 14.2245H11.9002C11.11 14.2245 10.5057 13.6202 10.5057 12.8299C10.5057 12.0397 11.11 11.4354 11.9002 11.4354ZM25.4274 29.5646H8.27438C7.48413 29.5646 6.87982 28.9603 6.87982 28.1701C6.87982 27.3798 7.53061 26.7755 8.27438 26.7755H25.4274C26.2177 26.7755 26.822 27.3798 26.822 28.1701C26.822 28.9603 26.2177 29.5646 25.4274 29.5646ZM25.4274 21.8946H8.27438C7.48413 21.8946 6.87982 21.2902 6.87982 20.5C6.87982 19.7098 7.53061 19.1054 8.27438 19.1054H25.4274C26.2177 19.1054 26.822 19.7098 26.822 20.5C26.822 21.2902 26.2177 21.8946 25.4274 21.8946Z" fill="#767676"/>
</svg>
