<svg width="60" height="60" viewBox="0 0 60 60" fill="none" xmlns="http://www.w3.org/2000/svg">
<path d="M43.685 31.8017C43.7617 31.2267 43.8 30.6325 43.8 30C43.8 29.3867 43.7617 28.7734 43.6658 28.1984L47.5567 25.17C47.9017 24.9017 47.9975 24.3842 47.7867 24.0009L44.1067 17.6375C43.8767 17.2159 43.3975 17.0817 42.9758 17.2159L38.395 19.0559C37.4367 18.3275 36.4208 17.7142 35.29 17.2542L34.6 12.3859C34.5233 11.9259 34.14 11.6 33.68 11.6H26.32C25.86 11.6 25.4958 11.9259 25.4192 12.3859L24.7292 17.2542C23.5983 17.7142 22.5633 18.3467 21.6242 19.0559L17.0433 17.2159C16.6217 17.0625 16.1425 17.2159 15.9125 17.6375L12.2517 24.0009C12.0217 24.4034 12.0983 24.9017 12.4817 25.17L16.3725 28.1984C16.2767 28.7734 16.2 29.4059 16.2 30C16.2 30.5942 16.2383 31.2267 16.3342 31.8017L12.4433 34.83C12.0983 35.0984 12.0025 35.6159 12.2133 35.9992L15.8933 42.3625C16.1233 42.7842 16.6025 42.9184 17.0242 42.7842L21.605 40.9442C22.5633 41.6725 23.5792 42.2859 24.71 42.7459L25.4 47.6142C25.4958 48.0742 25.86 48.4 26.32 48.4H33.68C34.14 48.4 34.5233 48.0742 34.5808 47.6142L35.2708 42.7459C36.4017 42.2859 37.4367 41.6725 38.3758 40.9442L42.9567 42.7842C43.3783 42.9375 43.8575 42.7842 44.0875 42.3625L47.7675 35.9992C47.9975 35.5775 47.9017 35.0984 47.5375 34.83L43.685 31.8017ZM30 36.9C26.205 36.9 23.1 33.795 23.1 30C23.1 26.205 26.205 23.1 30 23.1C33.795 23.1 36.9 26.205 36.9 30C36.9 33.795 33.795 36.9 30 36.9Z" fill="#0288D1"/>
</svg>
