<svg width="460" height="230" viewBox="0 0 460 230" fill="none" xmlns="http://www.w3.org/2000/svg">
<rect width="460" height="230" fill="#282C34"/>
<path d="M183.565 110.6H182.125C181.837 110.6 181.633 110.552 181.513 110.456C181.417 110.36 181.369 110.168 181.369 109.88V107.396C181.369 106.892 181.621 106.64 182.125 106.64H183.565C183.829 106.64 183.961 106.508 183.961 106.244V102.824C183.961 102.32 184.225 102.068 184.753 102.068H187.777C188.281 102.068 188.533 102.32 188.533 102.824V106.244C188.533 106.508 188.677 106.64 188.965 106.64H191.773C192.277 106.64 192.529 106.892 192.529 107.396V109.88C192.529 110.144 192.469 110.336 192.349 110.456C192.253 110.552 192.061 110.6 191.773 110.6H188.965C188.677 110.6 188.533 110.732 188.533 110.996V118.952C188.533 119.696 188.701 120.236 189.037 120.572C189.373 120.884 189.925 121.04 190.693 121.04H192.133C192.637 121.04 192.889 121.292 192.889 121.796V124.28C192.889 124.544 192.829 124.736 192.709 124.856C192.613 124.952 192.421 125 192.133 125H189.937C188.041 125 186.565 124.496 185.509 123.488C184.477 122.48 183.961 121.04 183.961 119.168V110.996C183.961 110.732 183.829 110.6 183.565 110.6ZM251.075 129.896H248.015C247.511 129.896 247.259 129.656 247.259 129.176V107.396C247.259 106.892 247.511 106.64 248.015 106.64H251.075C251.579 106.64 251.831 106.892 251.831 107.396V108.584H251.975C252.239 107.936 252.707 107.456 253.379 107.144C254.051 106.808 254.759 106.64 255.503 106.64H256.979C258.827 106.64 260.219 107.144 261.155 108.152C262.115 109.16 262.595 110.612 262.595 112.508V119.132C262.595 121.028 262.115 122.48 261.155 123.488C260.219 124.496 258.827 125 256.979 125H255.503C254.759 125 254.051 124.844 253.379 124.532C252.707 124.196 252.239 123.704 251.975 123.056H251.831V129.176C251.831 129.656 251.579 129.896 251.075 129.896ZM254.315 121.04H255.899C256.667 121.04 257.207 120.884 257.519 120.572C257.855 120.236 258.023 119.684 258.023 118.916V112.724C258.023 111.956 257.855 111.416 257.519 111.104C257.207 110.768 256.667 110.6 255.899 110.6H254.315C252.659 110.6 251.831 111.512 251.831 113.336V118.304C251.831 120.128 252.659 121.04 254.315 121.04Z" fill="#0288D1"/>
<path d="M202.305 125H201.441C199.545 125 198.081 124.496 197.049 123.488C196.017 122.48 195.501 121.028 195.501 119.132V112.508C195.501 110.612 196.017 109.16 197.049 108.152C198.081 107.144 199.545 106.64 201.441 106.64H209.757C210.285 106.64 210.549 106.892 210.549 107.396V124.244C210.549 124.748 210.285 125 209.757 125H206.733C206.229 125 205.977 124.748 205.977 124.244V123.056H205.833C205.569 123.704 205.101 124.196 204.429 124.532C203.757 124.844 203.049 125 202.305 125ZM205.977 118.304V110.996C205.977 110.732 205.833 110.6 205.545 110.6H202.161C201.393 110.6 200.853 110.768 200.541 111.104C200.229 111.416 200.073 111.956 200.073 112.724V118.916C200.073 119.684 200.229 120.236 200.541 120.572C200.853 120.884 201.393 121.04 202.161 121.04H203.493C205.149 121.04 205.977 120.128 205.977 118.304ZM221.442 125H214.602C214.122 125 213.882 124.748 213.882 124.244V121.94C213.882 121.676 213.93 121.496 214.026 121.4C214.122 121.28 214.314 121.22 214.602 121.22H220.614C221.79 121.22 222.378 120.86 222.378 120.14V119.96C222.378 119.384 221.886 118.832 220.902 118.304L217.338 116.324C216.114 115.7 215.214 115.028 214.638 114.308C214.062 113.588 213.774 112.664 213.774 111.536C213.774 109.856 214.218 108.62 215.106 107.828C215.994 107.036 217.386 106.64 219.282 106.64H225.294C225.774 106.64 226.014 106.892 226.014 107.396V109.736C226.014 110 225.966 110.192 225.87 110.312C225.774 110.408 225.582 110.456 225.294 110.456H220.29C219.114 110.456 218.526 110.756 218.526 111.356V111.536C218.526 112.064 219.042 112.604 220.074 113.156L223.71 115.316C224.958 115.988 225.834 116.684 226.338 117.404C226.842 118.1 227.094 119.024 227.094 120.176C227.094 123.392 225.21 125 221.442 125ZM240.791 106.64H244.283C244.571 106.64 244.763 106.724 244.859 106.892C244.955 107.06 244.919 107.276 244.751 107.54L239.963 115.424V115.568L244.967 124.1C245.111 124.34 245.123 124.556 245.003 124.748C244.883 124.916 244.667 125 244.355 125H241.259C240.851 125 240.551 124.952 240.359 124.856C240.191 124.76 240.011 124.556 239.819 124.244L235.247 116.216C235.031 115.832 235.031 115.436 235.247 115.028L239.567 107.36C239.831 106.88 240.239 106.64 240.791 106.64ZM234.095 125H231.035C230.531 125 230.279 124.748 230.279 124.244V100.448C230.279 99.944 230.531 99.692 231.035 99.692H234.095C234.599 99.692 234.851 99.944 234.851 100.448V124.244C234.851 124.748 234.599 125 234.095 125ZM272.653 125H271.789C269.893 125 268.429 124.496 267.397 123.488C266.365 122.48 265.849 121.028 265.849 119.132V112.508C265.849 110.612 266.365 109.16 267.397 108.152C268.429 107.144 269.893 106.64 271.789 106.64H280.105C280.633 106.64 280.897 106.892 280.897 107.396V124.244C280.897 124.748 280.633 125 280.105 125H277.081C276.577 125 276.325 124.748 276.325 124.244V123.056H276.181C275.917 123.704 275.449 124.196 274.777 124.532C274.105 124.844 273.397 125 272.653 125ZM276.325 118.304V110.996C276.325 110.732 276.181 110.6 275.893 110.6H272.509C271.741 110.6 271.201 110.768 270.889 111.104C270.577 111.416 270.421 111.956 270.421 112.724V118.916C270.421 119.684 270.577 120.236 270.889 120.572C271.201 120.884 271.741 121.04 272.509 121.04H273.841C275.497 121.04 276.325 120.128 276.325 118.304ZM291.573 125H290.097C288.249 125 286.845 124.496 285.885 123.488C284.949 122.48 284.481 121.028 284.481 119.132V112.508C284.481 110.612 284.949 109.16 285.885 108.152C286.845 107.144 288.249 106.64 290.097 106.64H291.573C292.317 106.64 293.025 106.808 293.697 107.144C294.369 107.456 294.837 107.936 295.101 108.584H295.245V100.448C295.245 99.944 295.497 99.692 296.001 99.692H299.061C299.565 99.692 299.817 99.944 299.817 100.448V124.244C299.817 124.748 299.565 125 299.061 125H296.001C295.497 125 295.245 124.748 295.245 124.244V123.056H295.101C294.837 123.704 294.369 124.196 293.697 124.532C293.025 124.844 292.317 125 291.573 125ZM295.245 118.304V113.336C295.245 111.512 294.417 110.6 292.761 110.6H291.141C290.373 110.6 289.833 110.768 289.521 111.104C289.209 111.416 289.053 111.956 289.053 112.724V118.916C289.053 119.684 289.209 120.236 289.521 120.572C289.833 120.884 290.373 121.04 291.141 121.04H292.761C294.417 121.04 295.245 120.128 295.245 118.304Z" fill="#FEFEFE"/>
<rect x="323.688" y="70.5491" width="15.4851" height="15.4851" transform="rotate(-18.4123 323.688 70.5491)" fill="#FEFEFE"/>
<rect x="311.852" y="91.2962" width="10.9061" height="10.9061" transform="rotate(-18.4123 311.852 91.2962)" fill="#FEFEFE"/>
<rect x="294.47" y="59" width="23.517" height="23.517" transform="rotate(29.1903 294.47 59)" fill="#FEFEFE"/>
<g clip-path="url(#clip0)">
<path d="M296.439 79.6772L292.848 70.2623L290.715 71.0105L294.307 80.4253L296.439 79.6772Z" fill="#0288D1"/>
<path d="M294.382 80.6902L309.795 75.534L309.016 73.4017L293.604 78.5579L294.382 80.6902Z" fill="#0288D1"/>
</g>
<rect x="187.898" y="142" width="20.932" height="20.932" transform="rotate(38.0384 187.898 142)" fill="#FEFEFE"/>
<rect x="123.913" y="116.046" width="32" height="32" transform="rotate(-34.5165 123.913 116.046)" fill="#FEFEFE"/>
<defs>
<clipPath id="clip0">
<rect width="18.826" height="13.6916" fill="white" transform="translate(294.255 64.8793) rotate(30)"/>
</clipPath>
</defs>
</svg>
